<mxfile host="app.diagrams.net" modified="2021-01-16T12:25:48.588Z" agent="5.0 (X11)" etag="iHnqj5rt2RNp9yWDjSIB" version="14.1.9" type="github">
  <diagram id="LnrqgQR9OZsyq4BpdhqI" name="Page-1">
    <mxGraphModel dx="4101" dy="2676" grid="1" gridSize="10" guides="1" tooltips="1" connect="1" arrows="1" fold="1" page="1" pageScale="1" pageWidth="827" pageHeight="1169" math="0" shadow="0">
      <root>
        <mxCell id="0" />
        <mxCell id="1" parent="0" />
        <mxCell id="lQoK1ao-_dlr8XllagPa-35" value="" style="rounded=0;whiteSpace=wrap;html=1;strokeColor=#B3B3B3;" vertex="1" parent="1">
          <mxGeometry x="-909" y="-810" width="1589" height="1340" as="geometry" />
        </mxCell>
        <mxCell id="lQoK1ao-_dlr8XllagPa-31" value="" style="rounded=0;whiteSpace=wrap;html=1;strokeColor=#FF0000;" vertex="1" parent="1">
          <mxGeometry x="-580" y="-390" width="290" height="280" as="geometry" />
        </mxCell>
        <mxCell id="lQoK1ao-_dlr8XllagPa-30" value="" style="rounded=0;whiteSpace=wrap;html=1;strokeColor=#FF0000;" vertex="1" parent="1">
          <mxGeometry x="-212.05" y="-700" width="196.25" height="235" as="geometry" />
        </mxCell>
        <mxCell id="lQoK1ao-_dlr8XllagPa-29" value="" style="rounded=0;whiteSpace=wrap;html=1;strokeColor=#FF0000;" vertex="1" parent="1">
          <mxGeometry x="-249" y="-390" width="190" height="280" as="geometry" />
        </mxCell>
        <mxCell id="lQoK1ao-_dlr8XllagPa-28" value="" style="rounded=0;whiteSpace=wrap;html=1;strokeColor=#FF0000;" vertex="1" parent="1">
          <mxGeometry x="-800" y="-52.5" width="200" height="322.5" as="geometry" />
        </mxCell>
        <mxCell id="lQoK1ao-_dlr8XllagPa-27" value="" style="rounded=0;whiteSpace=wrap;html=1;strokeColor=#FF0000;" vertex="1" parent="1">
          <mxGeometry x="-416.25" y="-70" width="290" height="300" as="geometry" />
        </mxCell>
        <mxCell id="lQoK1ao-_dlr8XllagPa-26" value="" style="rounded=0;whiteSpace=wrap;html=1;strokeColor=#FF0000;" vertex="1" parent="1">
          <mxGeometry x="-30" y="-130" width="520" height="540" as="geometry" />
        </mxCell>
        <mxCell id="lQoK1ao-_dlr8XllagPa-1" value="" style="image;html=1;image=img/lib/clip_art/computers/Server_128x128.png" vertex="1" parent="1">
          <mxGeometry x="-570" y="-300" width="280" height="150" as="geometry" />
        </mxCell>
        <mxCell id="lQoK1ao-_dlr8XllagPa-2" value="" style="aspect=fixed;html=1;points=[];align=center;image;fontSize=12;image=img/lib/azure2/databases/SQL_Server.svg;" vertex="1" parent="1">
          <mxGeometry x="-228" y="-330" width="160" height="160" as="geometry" />
        </mxCell>
        <mxCell id="lQoK1ao-_dlr8XllagPa-3" value="" style="verticalLabelPosition=bottom;verticalAlign=top;html=1;shadow=0;dashed=0;strokeWidth=1;shape=mxgraph.android.phone2;strokeColor=#0000FF;" vertex="1" parent="1">
          <mxGeometry x="-740" y="7.5" width="80" height="170" as="geometry" />
        </mxCell>
        <mxCell id="lQoK1ao-_dlr8XllagPa-4" value="" style="verticalLabelPosition=bottom;verticalAlign=top;html=1;shadow=0;dashed=0;strokeWidth=1;shape=mxgraph.android.phone2;strokeColor=#FF0000;" vertex="1" parent="1">
          <mxGeometry x="-760" y="40" width="80" height="170" as="geometry" />
        </mxCell>
        <mxCell id="lQoK1ao-_dlr8XllagPa-5" value="" style="shape=image;html=1;verticalAlign=top;verticalLabelPosition=bottom;labelBackgroundColor=#ffffff;imageAspect=0;aspect=fixed;image=https://cdn4.iconfinder.com/data/icons/technology-83/1000/app_frontend_end_front_front-end_front_end_development-128.png" vertex="1" parent="1">
          <mxGeometry x="-10" y="-11" width="207" height="207" as="geometry" />
        </mxCell>
        <mxCell id="lQoK1ao-_dlr8XllagPa-20" style="edgeStyle=orthogonalEdgeStyle;rounded=0;orthogonalLoop=1;jettySize=auto;html=1;exitX=0.75;exitY=0;exitDx=0;exitDy=0;exitPerimeter=0;entryX=0.034;entryY=0.996;entryDx=0;entryDy=0;entryPerimeter=0;startArrow=classic;startFill=1;" edge="1" parent="1" source="lQoK1ao-_dlr8XllagPa-6" target="lQoK1ao-_dlr8XllagPa-2">
          <mxGeometry relative="1" as="geometry" />
        </mxCell>
        <mxCell id="lQoK1ao-_dlr8XllagPa-21" style="edgeStyle=orthogonalEdgeStyle;rounded=0;orthogonalLoop=1;jettySize=auto;html=1;exitX=1;exitY=0.75;exitDx=0;exitDy=0;exitPerimeter=0;startArrow=classic;startFill=1;" edge="1" parent="1" source="lQoK1ao-_dlr8XllagPa-6" target="lQoK1ao-_dlr8XllagPa-5">
          <mxGeometry relative="1" as="geometry" />
        </mxCell>
        <mxCell id="lQoK1ao-_dlr8XllagPa-22" style="edgeStyle=orthogonalEdgeStyle;rounded=0;orthogonalLoop=1;jettySize=auto;html=1;exitX=0;exitY=0.75;exitDx=0;exitDy=0;exitPerimeter=0;startArrow=classic;startFill=1;" edge="1" parent="1" source="lQoK1ao-_dlr8XllagPa-6" target="lQoK1ao-_dlr8XllagPa-3">
          <mxGeometry relative="1" as="geometry" />
        </mxCell>
        <mxCell id="lQoK1ao-_dlr8XllagPa-6" value="&lt;font style=&quot;font-size: 32px&quot;&gt;BackEnd&lt;/font&gt;" style="html=1;strokeColor=none;fillColor=#0079D6;labelPosition=center;verticalLabelPosition=middle;verticalAlign=top;align=center;fontSize=12;outlineConnect=0;spacingTop=-6;fontColor=#FFFFFF;shape=mxgraph.sitemap.script;" vertex="1" parent="1">
          <mxGeometry x="-370" y="-20" width="197.5" height="150" as="geometry" />
        </mxCell>
        <mxCell id="lQoK1ao-_dlr8XllagPa-8" value="" style="shape=image;html=1;verticalAlign=top;verticalLabelPosition=bottom;labelBackgroundColor=#ffffff;imageAspect=0;aspect=fixed;image=https://cdn0.iconfinder.com/data/icons/news-and-magazine/512/statistic-128.png" vertex="1" parent="1">
          <mxGeometry x="251" y="-19.75" width="70" height="70" as="geometry" />
        </mxCell>
        <mxCell id="lQoK1ao-_dlr8XllagPa-9" value="" style="shape=image;html=1;verticalAlign=top;verticalLabelPosition=bottom;labelBackgroundColor=#ffffff;imageAspect=0;aspect=fixed;image=https://cdn2.iconfinder.com/data/icons/essential-web-5/50/map-direction-diagram-path-route-128.png" vertex="1" parent="1">
          <mxGeometry x="251" y="74.25" width="90" height="90" as="geometry" />
        </mxCell>
        <mxCell id="lQoK1ao-_dlr8XllagPa-10" value="" style="shape=image;html=1;verticalAlign=top;verticalLabelPosition=bottom;labelBackgroundColor=#ffffff;imageAspect=0;aspect=fixed;image=https://cdn2.iconfinder.com/data/icons/humano2/128x128/apps/gnumeric.png" vertex="1" parent="1">
          <mxGeometry x="240" y="-119.75" width="92" height="92" as="geometry" />
        </mxCell>
        <mxCell id="lQoK1ao-_dlr8XllagPa-11" value="" style="shape=image;html=1;verticalAlign=top;verticalLabelPosition=bottom;labelBackgroundColor=#ffffff;imageAspect=0;aspect=fixed;image=https://cdn0.iconfinder.com/data/icons/chart-22/20/chart_spline_double-128.png" vertex="1" parent="1">
          <mxGeometry x="341" y="-27.75" width="89" height="89" as="geometry" />
        </mxCell>
        <mxCell id="lQoK1ao-_dlr8XllagPa-12" value="" style="shape=image;html=1;verticalAlign=top;verticalLabelPosition=bottom;labelBackgroundColor=#ffffff;imageAspect=0;aspect=fixed;image=https://cdn2.iconfinder.com/data/icons/freeicons/PNG_256x256/Pie%20Diagram.png" vertex="1" parent="1">
          <mxGeometry x="341" y="-119.75" width="80" height="80" as="geometry" />
        </mxCell>
        <mxCell id="lQoK1ao-_dlr8XllagPa-13" value="" style="html=1;verticalLabelPosition=bottom;align=center;labelBackgroundColor=#ffffff;verticalAlign=top;strokeWidth=2;strokeColor=#0080F0;shadow=0;dashed=0;shape=mxgraph.ios7.icons.settings;" vertex="1" parent="1">
          <mxGeometry x="381" y="205.25" width="90" height="80" as="geometry" />
        </mxCell>
        <mxCell id="lQoK1ao-_dlr8XllagPa-14" value="" style="html=1;verticalLabelPosition=bottom;align=center;labelBackgroundColor=#ffffff;verticalAlign=top;strokeWidth=2;strokeColor=#0080F0;shadow=0;dashed=0;shape=mxgraph.ios7.icons.volume;pointerEvents=1" vertex="1" parent="1">
          <mxGeometry x="241" y="184.75" width="110" height="120" as="geometry" />
        </mxCell>
        <mxCell id="lQoK1ao-_dlr8XllagPa-15" value="" style="pointerEvents=1;shadow=0;dashed=0;html=1;strokeColor=none;fillColor=#505050;labelPosition=center;verticalLabelPosition=bottom;verticalAlign=top;outlineConnect=0;align=center;shape=mxgraph.office.concepts.platform_options;" vertex="1" parent="1">
          <mxGeometry x="371" y="74.25" width="94.5" height="84" as="geometry" />
        </mxCell>
        <mxCell id="lQoK1ao-_dlr8XllagPa-16" value="" style="aspect=fixed;html=1;points=[];align=center;image;fontSize=12;image=img/lib/azure2/ai_machine_learning/Cognitive_Services.svg;" vertex="1" parent="1">
          <mxGeometry x="-191.84000000000003" y="-610" width="155.84" height="110" as="geometry" />
        </mxCell>
        <mxCell id="lQoK1ao-_dlr8XllagPa-17" value="&lt;font style=&quot;font-size: 32px&quot;&gt;FrontEnd&lt;/font&gt;" style="text;html=1;align=center;verticalAlign=middle;resizable=0;points=[];autosize=1;" vertex="1" parent="1">
          <mxGeometry x="18.5" y="190" width="150" height="20" as="geometry" />
        </mxCell>
        <mxCell id="lQoK1ao-_dlr8XllagPa-23" value="" style="endArrow=classic;startArrow=classic;html=1;entryX=0.282;entryY=1.036;entryDx=0;entryDy=0;entryPerimeter=0;" edge="1" parent="1" source="lQoK1ao-_dlr8XllagPa-2" target="lQoK1ao-_dlr8XllagPa-16">
          <mxGeometry width="50" height="50" relative="1" as="geometry">
            <mxPoint x="-90" y="-400" as="sourcePoint" />
            <mxPoint x="-40" y="-450" as="targetPoint" />
          </mxGeometry>
        </mxCell>
        <mxCell id="lQoK1ao-_dlr8XllagPa-24" value="&lt;font style=&quot;font-size: 32px&quot;&gt;Server&lt;/font&gt;" style="text;html=1;align=center;verticalAlign=middle;resizable=0;points=[];autosize=1;" vertex="1" parent="1">
          <mxGeometry x="-535" y="-340" width="110" height="20" as="geometry" />
        </mxCell>
        <mxCell id="lQoK1ao-_dlr8XllagPa-32" value="&lt;font style=&quot;font-size: 32px&quot;&gt;Database&lt;/font&gt;" style="text;html=1;align=center;verticalAlign=middle;resizable=0;points=[];autosize=1;" vertex="1" parent="1">
          <mxGeometry x="-209" y="-150" width="150" height="20" as="geometry" />
        </mxCell>
        <mxCell id="lQoK1ao-_dlr8XllagPa-34" value="&lt;font style=&quot;font-size: 32px&quot;&gt;AI&lt;/font&gt;" style="text;html=1;align=center;verticalAlign=middle;resizable=0;points=[];autosize=1;" vertex="1" parent="1">
          <mxGeometry x="-140" y="-660" width="50" height="20" as="geometry" />
        </mxCell>
        <mxCell id="lQoK1ao-_dlr8XllagPa-36" value="&lt;font style=&quot;font-size: 32px&quot;&gt;Android/IOS&lt;/font&gt;" style="text;html=1;align=center;verticalAlign=middle;resizable=0;points=[];autosize=1;" vertex="1" parent="1">
          <mxGeometry x="-799" y="235.25" width="190" height="20" as="geometry" />
        </mxCell>
      </root>
    </mxGraphModel>
  </diagram>
</mxfile>
